<?xml version="1.0" encoding="utf-8" ?><svg xmlns="http://www.w3.org/2000/svg" xmlns:xlink="http://www.w3.org/1999/xlink" width="2010" height="492" viewBox="0 0 2010 492"><path fill="#EBFFE2" d="M371.938 51.4957C372.399 51.4557 373.181 51.3725 373.616 51.368C410.232 50.9956 458.65 45.8371 488.155 71.6291C501.233 83.6799 512.296 99.87 512.95 118.201C513.591 136.167 513.674 154.167 513.694 172.143L513.574 265.929L513.727 331.016C513.777 369.889 516.181 403.783 479.132 427.472C462.944 437.822 451.555 440.524 432.51 441.652L372.606 441.869C371.925 422.74 372.07 403.571 372.088 384.428C408.923 381.666 453.31 395.793 453.344 340.345C453.387 271.6 456.685 202.499 451.097 133.853C450.365 124.851 435.851 114.881 428.844 110.351C410.239 109.429 390.605 109.71 371.9 109.698C371.615 90.4684 371.885 70.7609 371.938 51.4957Z"/><path fill="#EBFFE2" d="M1364.45 51.5956C1404.88 54.3113 1456.88 44.2319 1490.16 71.0596C1539.17 110.566 1535.61 172.802 1499.51 219.392C1457.73 255.462 1416.09 246.723 1365.11 246.481C1365.46 183.01 1365.6 114.827 1364.45 51.5956ZM1407.28 208.995C1431.79 209.654 1447.84 212.363 1468.18 197.035C1487.82 176.443 1488.97 122.536 1468.64 101.881C1455.18 88.2073 1427.01 87.2055 1408.89 87.7745L1408.21 87.799C1405.25 90.8788 1407.33 194.253 1407.28 208.995Z"/><path fill="#EBFFE2" d="M732.353 51.5061C747.138 51.1975 761.105 51.2363 775.896 51.4749C775.221 115.176 777.569 180.816 776.119 244.378L775.914 244.934C772.704 247.47 743.385 246.314 736.805 246.254C710.367 206.262 684.754 166.397 659.085 125.891L658.89 246.588L617.05 246.561L617.071 51.3533L653.366 52.1269C662.982 62.6491 673.947 79.6082 681.913 91.5035C699.374 117.577 715.411 144.768 732.51 171.091C731.828 131.596 733.093 91.3999 732.353 51.5061Z"/><path fill="#EBFFE2" d="M1888.91 100.447C1899.11 99.4209 1912.05 103.745 1920.35 109.748C1954.82 134.899 1958.85 189.588 1935.15 223.377C1920.11 244.799 1893.65 255.304 1868.61 245.076C1861.2 242.053 1856.49 238.507 1849.98 233.787L1849.89 281.756L1850.14 298.753L1807.93 298.805L1807.58 101.481C1820.65 101.077 1835.54 101.421 1848.76 101.416C1849.44 107.179 1849.95 113.036 1850.49 118.82C1863.08 107.902 1872.5 102.708 1888.91 100.447ZM1884.53 213.665C1891.42 211.187 1897.01 209.498 1901.61 203.358C1915.34 185.032 1910.77 159.411 1900.35 140.981C1889.3 138.742 1882.74 136.947 1871.29 137.662C1862.52 139.996 1855.3 143.707 1850.87 151.86C1841.69 168.789 1845.54 199.4 1863.45 209.4C1870.77 213.49 1876.67 213.411 1884.53 213.665Z"/><path fill="#EBFFE2" d="M1085.38 125.878C1088.34 122.377 1091.42 118.793 1094.48 115.418C1111.75 96.6382 1148.15 94.4572 1166.47 112.56C1179.75 125.792 1181.54 145.421 1181.48 163.125C1181.39 190.727 1180.76 218.192 1180.84 245.78C1167.42 245.42 1152.55 245.268 1139.25 246.592L1140.3 202.16C1140.51 191.59 1140.29 146.778 1132.96 142.49C1110.22 129.206 1090.36 145.89 1089.87 170.404C1089.36 195.606 1090.19 217.197 1090.47 240.684C1090.56 243.194 1090.57 243.638 1089.56 245.91C1075.7 245.744 1063.73 245.755 1049.92 246.459C1048.11 230.37 1054.97 151.612 1043.15 143.957C987.575 107.951 999.066 219.732 1000.08 246.481C986.606 246.332 973.098 246.451 959.625 246.51C958.555 198.184 959.201 149.337 959.145 100.945C970.812 100.331 986.139 100.913 998.008 101.168C998.693 110.539 999.028 116.127 998.473 125.446C1011.83 111.586 1023.67 103.255 1042.95 100.487C1064.37 99.8654 1074.79 108.256 1085.38 125.878Z"/><path fill="#EBFFE2" d="M1704.56 99.8403C1745.6 93.264 1784.13 121.419 1790.36 162.537C1796.59 203.655 1768.14 241.972 1726.99 247.863C1686.33 253.684 1648.58 225.615 1642.43 184.979C1636.27 144.343 1664.01 106.34 1704.56 99.8403ZM1726.99 212.324C1736.21 206.912 1745.04 198.219 1746.63 187.495C1751.95 151.79 1741.53 134.082 1705.13 135.6C1685.58 148.32 1682.64 165.065 1686.71 186.666C1690.75 208.135 1706.37 216.791 1726.99 212.324Z"/><path fill="#EBFFE2" d="M852.07 99.4525C952.533 94.9106 933.383 173.531 932.546 245.968C929.045 246.08 925.455 246.294 921.949 246.313C904.789 246.407 893.997 250.994 892.169 229.922C867.792 252.775 837.752 257.071 810.928 235.467C798.271 219.149 798.265 204.857 805.091 185.823C815.933 155.589 880.088 166.97 890.055 144.898C889.836 132.37 863.664 128.906 855.186 133.108C849.475 135.94 841.474 144.028 836.58 148.613C825.556 148.629 815.228 148.324 804.224 147.905C808.943 115.718 821.72 106.646 852.07 99.4525ZM847.971 215.913C856.55 216.351 866.202 217.114 874.662 216.251C882.868 210.091 893.639 195.238 891.534 184.495L890.186 182.935L887.38 183.085C869.118 185.099 825.304 188.084 847.971 215.913Z"/><path fill="#EBFFE2" d="M1259.15 99.4747C1323.77 96.0929 1338.67 127.983 1338.53 186.922C1321.21 186.455 1257.08 184.606 1243.89 188.727C1235.89 202.219 1268.28 233.846 1300.58 199.483C1311.29 199.374 1321.98 199.573 1332.68 199.73L1335.2 200.454L1336.2 202.285C1336.28 209.165 1332.76 214.475 1329.56 220.184C1321.06 234.727 1304.12 243.489 1288.47 247.477C1249.48 257.412 1214.31 236.861 1205.1 197.32C1199.98 175.356 1202.03 147.99 1213.74 128.131C1223.81 111.062 1240.66 103.934 1259.15 99.4747ZM1250.64 140.289C1247.81 146.057 1244.65 152.187 1241.99 157.993L1278.67 158.164L1298.38 158.208C1292.81 136.676 1286.26 131.844 1263.88 133.859C1257.89 135.983 1256.01 137.078 1250.64 140.289Z"/><path fill="#EBFFE2" d="M1593.01 124.715C1607.28 103.445 1612.36 101.13 1637.96 101.159C1637.97 114.307 1637.98 127.161 1637.56 140.303C1598.95 140.007 1591.97 147.903 1592.65 186.749L1592.82 246.533L1550.23 246.476C1549.32 218.639 1550.47 135.666 1551.08 102.44C1551.09 102.092 1554.02 101.763 1554.8 101.639C1566.47 101.045 1579.72 101.897 1591.51 102.378L1593.01 124.715Z"/><path fill="#EBFFE2" d="M1115.65 336.963C1170.79 334.787 1185.7 402.585 1132.52 426.552C1124.53 427.14 1117.48 427.316 1109.97 424.512C1074.26 411.173 1074.51 361.557 1105.07 342.51C1108.58 340.319 1112.04 338.691 1115.65 336.963ZM1131.47 412.677C1163.93 391.733 1152.09 349.13 1117.4 350.436C1086.67 372.18 1091.9 413.271 1131.47 412.677Z"/><path fill="#EBFFE2" d="M1008.66 337.854C1019.98 337.55 1034.14 336.506 1045.07 338.817C1080.25 346.248 1079.37 375.328 1052.33 393.308C1061.34 404.676 1067.63 413.163 1074.75 426.031C1070.02 426.389 1064.67 426.368 1059.88 426.458C1047.59 419.133 1045.19 395.369 1029.03 395.72C1018.45 395.951 1027.11 417.761 1021.91 423.042C1018.99 426.008 1014.33 427.575 1010.81 424.668C1007.44 415.624 1008.56 352.163 1008.66 337.854ZM1023.52 382.966C1036.55 382.447 1042.14 382.244 1054.47 378.53C1067.58 352.554 1042.27 351.124 1023.35 351.407C1023.29 361.963 1023.18 372.41 1023.52 382.966Z"/><path fill="#EBFFE2" d="M724.875 337.328C738.362 335.833 758.225 339.383 768.038 349.226C779.062 360.284 778.909 377.254 767.793 388.162C758.251 397.526 748.475 398.478 736.067 398.424L726.433 398.006L726.376 425.986L712.519 426.015C710.663 400.778 711.27 363.356 711.953 337.635L724.875 337.328ZM726.437 386.067C735.262 385.956 747.85 386.126 755.358 380.81C769.074 353.395 749.531 350.505 726.484 350.62L726.437 386.067Z"/><path fill="#EBFFE2" d="M1452.28 361.624C1484.97 365.959 1488.47 411.644 1461.58 425.479C1452.64 430.08 1441.23 425.438 1432.5 421.772L1432.79 436.706C1431.5 454.742 1419.6 451.086 1419.08 439.574C1417.93 414.291 1417.4 387.41 1419.28 362.192C1427.41 362.03 1426.95 361.685 1432.35 366.447C1434.81 368.612 1446.91 362.684 1452.28 361.624ZM1454.85 415.657C1471.64 397.44 1469.17 373.396 1441.03 373.994C1424.96 392.132 1426.68 416.589 1454.85 415.657Z"/><path fill="#EBFFE2" d="M1378.66 360.157C1413.65 371.022 1414.85 405.955 1386.83 425.995C1373.39 427.97 1370.33 427.014 1358.27 420.999C1358.62 429.24 1360.91 442.127 1353.84 447.429C1351.41 447.59 1350.95 447.482 1348.58 446.831C1346.11 443.506 1346.64 442.196 1346.04 437.675C1344.23 415.805 1344.5 383.744 1346.59 361.857C1352.88 357.265 1357.37 366.451 1361.11 365.877C1366.46 365.052 1373.18 361.778 1378.66 360.157ZM1379.9 414.899C1397.94 398.251 1397.09 378.156 1371.1 372.189C1350.93 387.503 1352.48 414.045 1379.9 414.899Z"/><path fill="#E3F2DB" d="M1346.04 437.675L1347.15 434.177L1347.66 434.613L1346.69 436.099L1348.74 434.311C1353.96 437.34 1354.07 442.113 1353.84 447.429C1351.41 447.59 1350.95 447.482 1348.58 446.831C1346.11 443.506 1346.64 442.196 1346.04 437.675Z"/><path fill="#EBFFE2" d="M273.541 384.233C291.05 383.669 311.15 384.169 328.859 384.183C328.827 403.76 328.847 423.074 329.211 442.658C310.775 441.738 292.131 441.811 273.659 441.715C273.213 423.257 273.567 402.83 273.541 384.233Z"/><path fill="#EBFFE2" d="M173.946 384.163L228.674 384.147C229.527 403.525 229.473 422.895 229.064 442.281C210.436 441.859 192.518 442.032 173.914 442.272L173.946 384.163Z"/><path fill="#EBFFE2" d="M173.988 51.5407C190.12 50.8056 212.509 51.0963 228.634 51.5041L228.672 109.969L174.472 109.888C173.986 90.4598 174.033 70.9785 173.988 51.5407Z"/><path fill="#EBFFE2" d="M273.495 162.525C290.486 161.649 312.014 162.321 329.298 162.452C328.941 181.649 328.904 200.584 328.925 219.773C310.178 219.299 292.202 219.733 273.501 220.652L273.495 162.525Z"/><path fill="#EBFFE2" d="M173.875 273.159C191.981 272.825 211.111 273.158 229.299 273.173C229.71 291.947 229.559 311.222 229.624 330.036C211.561 330.839 192.791 330.574 174.657 330.555C173.961 312.019 174.2 291.912 173.875 273.159Z"/><path fill="#EBFFE2" d="M273.506 273.199C291.274 272.734 310.978 273.169 328.901 273.173L328.774 330.727C310.409 330.529 291.955 330.69 273.582 330.756L273.506 273.199Z"/><path fill="#EBFFE2" d="M273.69 51.7202C294.264 52.5904 308.376 52.6375 328.97 51.6831C328.513 70.6425 328.804 90.6656 328.777 109.705C311.822 110.449 291.811 109.918 274.636 109.88C273.426 91.5946 273.784 70.2529 273.69 51.7202Z"/><path fill="#EBFFE2" d="M173.978 162.543C191.436 164.119 210.882 163.378 228.524 162.973L228.635 219.655C210.03 219.222 192.313 219.366 173.737 219.613C173.21 200.852 173.536 181.29 173.978 162.543Z"/><path fill="#EBFFE2" d="M1182.8 402.313C1195.97 410.815 1211.27 422.985 1225.29 405.848C1226.17 404.764 1226.36 402.983 1226.39 401.602C1222.02 385.305 1160.42 387.168 1176.99 351.243C1179.85 345.045 1189.75 340.089 1195.94 338.094C1207.52 332.828 1241.73 343.009 1239.37 358.534C1230.15 371.697 1215 345.993 1202.51 349.917C1196.15 351.912 1188.47 353.374 1189.04 362.263C1194.84 378.186 1254.64 376.448 1240.83 408.494C1237.79 415.556 1231.23 422.435 1223.71 424.638C1204.42 430.092 1187.23 428.297 1174.49 411.845C1173.51 408.114 1172.86 405.674 1174.34 402.394C1177.04 400.786 1179.68 401.706 1182.8 402.313Z"/><path fill="#E3F2DB" d="M1174.49 411.845C1173.51 408.114 1172.86 405.674 1174.34 402.394C1177.04 400.786 1179.68 401.706 1182.8 402.313L1174.49 411.845Z"/><path fill="#EBFFE2" d="M881.076 357.656C922.211 357.368 916.503 377.617 918.395 411.048C918.739 417.128 918.956 426.077 912.024 427.426C908.073 426.74 904.352 423.616 901.033 421.237C883.345 426.357 878.015 432.827 861.895 418.587C847.661 380.275 901.864 392.227 902.508 376.587C894.86 360.768 873.343 381.232 862.83 375.899C861.567 366.102 873.818 360.891 881.076 357.656ZM883.581 416.169C891.759 415.217 900.667 411.611 902.36 402.522C901.315 398.286 898.796 396.378 894.282 396.047C887.332 396.812 875.048 398.924 874.314 407.795C875.525 413.171 878.964 414.277 883.581 416.169Z"/><path fill="#EBFFE2" d="M811.023 357.599C824.74 356.724 838.585 363.082 844.378 375.987C859.124 408.837 807.372 388.908 799.03 401.689C798.515 410.208 814.731 417.074 822.247 412.74C826.608 410.226 833.382 404.16 837.423 404.58C840.062 405.343 840.988 405.871 843.322 407.148C844.019 408.866 844.632 409.702 843.55 411.541C819.97 451.593 771.038 412.605 787.803 376.257C793.062 364.857 800.026 361.665 811.023 357.599ZM824.659 385.974C828.478 385.234 828.086 385.873 830.677 383.497C831.373 374.033 817.633 369.743 810.023 369.191C805.712 373.603 799.738 377.84 804.321 383.889C810.746 387.222 817.43 386.255 824.659 385.974Z"/><path fill="#EBFFE2" d="M634.449 358.673C668.814 357.398 670.453 383.559 669.157 410.704C668.837 417.403 668.524 424.906 661.549 427.135C658.59 426.718 656.046 423.587 653.805 421.359C638.794 417.561 638.648 438.768 614.168 418.39C595.563 384.638 654.382 390.554 651.924 376.012C641.335 361.443 617.374 385.296 614.066 374.481C616.518 365.124 625.445 360.298 634.449 358.673ZM635.367 415.605C644.243 413.988 653.042 410.559 654.126 400.018C652.554 395.515 649.48 394.96 644.935 396.002C637.089 397.313 625.881 399.995 625.191 409.859C626.641 413.916 631.218 415.91 635.367 415.605Z"/><path fill="#EBFFE2" d="M1299.2 359.462C1318.81 358.532 1329.92 367.703 1332.32 387.456C1333.25 395.162 1336.32 426.38 1325.48 427.777C1321.88 426.486 1319.08 422.971 1316.44 420.134C1297.58 427.044 1296.6 433.129 1279.1 419.235C1274.23 414.359 1274.72 408.063 1276.38 401.539C1280.21 386.453 1313.03 388.646 1316.57 379.344C1315.45 359.995 1283.28 383.676 1278.11 376.592C1279.08 366.051 1290.85 362.431 1299.2 359.462ZM1303.68 415.797C1310.35 412.427 1318.85 408.074 1315.33 399.225C1311.58 395.773 1307.84 396.498 1303.11 396.844C1282.79 401.98 1288.75 417.679 1303.68 415.797Z"/><path fill="#EBFFE2" d="M938.469 332.124C942.655 332.076 947.275 331.705 951.119 333.277C955.232 338.417 953.62 377.152 953.52 386.706C960.505 378.542 979.536 352.832 991.951 362.299C991.595 366.766 975.15 382.496 971.089 387.404C977.54 396.02 984.243 406.025 990.459 414.937C992.321 417.391 994.788 421.519 994.529 424.688C977.5 433.997 967.595 400.486 958.714 399.601C947.471 405.94 960.5 425.672 946.17 427.608C934.027 421.851 938.164 346.284 938.469 332.124Z"/><path fill="#EBFFE2" d="M76.6342 166.114C93.6737 166.162 109.049 166.232 126.212 165.771L126.519 218.239C109.639 218.127 93.5036 217.999 76.6421 218.915C76.4373 201.39 76.6052 183.655 76.6342 166.114Z"/></svg>